# xmcd CD database file
# Copyright (C) 1993-1996 Ti Kan
#
# Track frame offsets:
#	150
#	12455
#	27060
#	38982
#	61762
#	83147
#	104310
#	123425
#	134297
#	155687
#	167510
#	185047
#	197982
#	209547
#	228625
#
# Disc length: 3315 seconds
#
# Revision: 1
# Processed by: cddbd v1.4b41PL1 Copyright (c) Steve Scherf et al.
# Submitted via: CDValet v3.01 - Copyright (c) 1997 Greg Leichner
#
DISCID=cf0cf10f
DTITLE=Lightnin' Hopkins - Shaggy Dog
DYEAR=1900
DGENRE=
TTITLE0=Shaggy Dog
TTITLE1=Sante Fe Blues
TTITLE2=Shining Moon
TTITLE3=I'll Be Gone
TTITLE4=Shake It Baby
TTITLE5=Goin' Back Home
TTITLE6=Good Times
TTITLE7=What'd I Say
TTITLE8=Don't Wake Me
TTITLE9=Talk Of The Town
TTITLE10=California Landslide
TTITLE11=Rosie Mae
TTITLE12=Easy On Your Heels
TTITLE13=Leave Jike Mary Alone
TTITLE14=You Treat Poor Lightnin' Wrong
EXTD=
EXTT0=
EXTT1=
EXTT2=
EXTT3=
EXTT4=
EXTT5=
EXTT6=
EXTT7=
EXTT8=
EXTT9=
EXTT10=
EXTT11=
EXTT12=
EXTT13=
EXTT14=
PLAYORDER=
